<?xml version="1.0" encoding="utf-8"?>
<!-- Generator: Adobe Illustrator 16.0.0, SVG Export Plug-In . SVG Version: 6.00 Build 0)  -->
<!DOCTYPE svg PUBLIC "-//W3C//DTD SVG 1.1//EN" "http://www.w3.org/Graphics/SVG/1.1/DTD/svg11.dtd">
<svg version="1.1" id="Capa_1" xmlns="http://www.w3.org/2000/svg" xmlns:xlink="http://www.w3.org/1999/xlink" x="0px" y="0px"
	 width="350px" height="70px" viewBox="0 0 350 70" enable-background="new 0 0 350 70" xml:space="preserve">
<g>
	<path fill="#0A71B3" d="M25.33,50.835L36.467,22.99h10.575L29.459,66.728H21.2L3.617,22.99h10.575L25.33,50.835z"/>
	<path fill="#0A71B3" d="M83.771,22.99v8.697H61.996v9.011h19.584v8.323H61.996v9.073h22.463v8.633H52.234V22.99H83.771z"/>
	<path fill="#0A71B3" d="M128.635,37.506c0,7.01-2.775,11.535-8.322,13.58l11.076,15.642h-12.014l-9.699-13.952h-6.758v13.952
		h-9.761V22.99h16.582c6.799,0,11.647,1.148,14.547,3.44C127.185,28.727,128.635,32.418,128.635,37.506z M116.871,42.702
		c1.209-1.087,1.814-2.808,1.814-5.164s-0.625-3.973-1.876-4.849c-1.251-0.876-3.441-1.315-6.569-1.315h-7.322v12.952h7.134
		C113.388,44.326,115.661,43.785,116.871,42.702z"/>
	<path fill="#0A71B3" d="M156.292,31.438v35.29h-9.762v-35.29h-12.389V22.99h34.54v8.447H156.292z"/>
	<path fill="#0A71B3" d="M175.813,22.99h9.762v43.737h-9.762V22.99z"/>
	<path fill="#0A71B3" d="M198.669,4.024h13.994v25.744l23.682-25.744h17.312l-24.938,27.719c2.153,2.991,6.129,8.566,11.931,16.731
		c5.799,8.161,10.136,14.248,13.006,18.253h-16.326l-18.389-24.759l-6.28,6.999v17.76h-13.994V4.024z"/>
	<path fill="#0A71B3" d="M291.187,66.728l-4.068-9.448h-18.333l-4.067,9.448h-10.387l18.897-43.737h9.448l18.897,43.737H291.187z
		 M277.983,36.006l-5.506,12.701h10.95L277.983,36.006z"/>
	<path fill="#0A71B3" d="M337.24,22.99H347v43.737h-9.76l-20.837-27.405v27.405h-9.761V22.99h9.135l21.463,28.157V22.99z"/>
</g>
<g>
	<path fill="#C5C6C8" d="M10.337,14.994c0.756,0,1.406-0.128,1.952-0.381c0.545-0.253,1.116-0.661,1.711-1.219l1.413,1.451
		c-1.376,1.523-3.047,2.287-5.012,2.287c-1.964,0-3.594-0.632-4.89-1.896c-1.296-1.265-1.943-2.863-1.943-4.798
		c0-1.934,0.66-3.546,1.98-4.835s2.987-1.935,5.002-1.935c2.015,0,3.698,0.744,5.049,2.231l-1.395,1.524
		c-0.62-0.595-1.206-1.01-1.757-1.245c-0.551-0.236-1.199-0.354-1.943-0.354c-1.314,0-2.418,0.425-3.311,1.274
		c-0.892,0.851-1.339,1.934-1.339,3.256c0,1.317,0.443,2.422,1.33,3.31C8.071,14.552,9.122,14.994,10.337,14.994z"/>
	<path fill="#C5C6C8" d="M28.69,15.19c-1.314,1.281-2.939,1.924-4.873,1.924s-3.558-0.643-4.872-1.924
		c-1.314-1.283-1.971-2.884-1.971-4.8c0-1.915,0.657-3.514,1.971-4.797c1.314-1.282,2.938-1.925,4.872-1.925
		s3.558,0.643,4.873,1.925c1.314,1.283,1.971,2.882,1.971,4.797C30.662,12.307,30.004,13.907,28.69,15.19z M27.082,7.054
		c-0.887-0.917-1.974-1.375-3.264-1.375s-2.377,0.458-3.264,1.375c-0.886,0.917-1.329,2.03-1.329,3.337
		c0,1.31,0.443,2.421,1.329,3.339c0.887,0.917,1.974,1.376,3.264,1.376s2.377-0.459,3.264-1.376
		c0.886-0.918,1.329-2.029,1.329-3.339C28.411,9.084,27.968,7.971,27.082,7.054z"/>
	<path fill="#C5C6C8" d="M43.176,3.984h2.195v13.001H42.99L35.626,7.5v9.485h-2.194V3.984h2.194l7.55,9.708V3.984z"/>
	<path fill="#C5C6C8" d="M52.911,5.697c-0.638,0-1.162,0.129-1.572,0.39c-0.409,0.261-0.613,0.653-0.613,1.182
		c0,0.526,0.204,0.929,0.613,1.207c0.41,0.281,1.281,0.58,2.613,0.902c1.333,0.323,2.336,0.775,3.013,1.356
		c0.675,0.584,1.013,1.443,1.013,2.578c0,1.133-0.427,2.054-1.282,2.761c-0.856,0.706-1.978,1.06-3.366,1.06
		c-2.033,0-3.837-0.699-5.411-2.1l1.376-1.657c1.313,1.141,2.677,1.71,4.09,1.71c0.707,0,1.268-0.149,1.683-0.455
		c0.415-0.303,0.623-0.705,0.623-1.207c0-0.504-0.195-0.893-0.585-1.172s-1.063-0.533-2.018-0.763
		c-0.955-0.229-1.68-0.438-2.176-0.634c-0.496-0.19-0.936-0.441-1.32-0.752c-0.769-0.582-1.153-1.474-1.153-2.679
		c0-1.2,0.437-2.128,1.311-2.779c0.874-0.651,1.956-0.977,3.246-0.977c0.83,0,1.655,0.138,2.473,0.41
		c0.819,0.272,1.525,0.657,2.12,1.153l-1.172,1.654c-0.384-0.348-0.905-0.633-1.562-0.854C54.197,5.809,53.55,5.697,52.911,5.697z"
		/>
	<path fill="#C5C6C8" d="M65.602,5.994v10.991h-2.194V5.994h-3.942v-2.01h10.079v2.01H65.602z"/>
	<path fill="#C5C6C8" d="M82.301,8.207c0,2.146-0.936,3.496-2.808,4.053l3.403,4.726h-2.79l-3.105-4.371h-2.883v4.371h-2.194V3.984
		h4.834c1.983,0,3.403,0.336,4.259,1.006C81.873,5.661,82.301,6.73,82.301,8.207z M79.381,10.046
		c0.446-0.382,0.669-0.999,0.669-1.849c0-0.849-0.229-1.432-0.688-1.747c-0.459-0.317-1.278-0.475-2.455-0.475h-2.79v4.647h2.734
		C78.092,10.623,78.935,10.433,79.381,10.046z"/>
	<path fill="#C5C6C8" d="M88.382,14.01c0.595,0.694,1.401,1.042,2.417,1.042c1.017,0,1.823-0.348,2.418-1.042
		c0.595-0.695,0.893-1.637,0.893-2.828V3.984h2.194v7.291c0,1.871-0.515,3.313-1.543,4.323c-1.029,1.011-2.35,1.516-3.961,1.516
		c-1.611,0-2.931-0.505-3.96-1.516c-1.029-1.01-1.543-2.452-1.543-4.323V3.984h2.194v7.197
		C87.489,12.373,87.787,13.314,88.382,14.01z"/>
	<path fill="#C5C6C8" d="M105.676,14.994c0.756,0,1.406-0.128,1.952-0.381c0.546-0.253,1.116-0.661,1.711-1.219l1.413,1.451
		c-1.376,1.523-3.047,2.287-5.012,2.287c-1.965,0-3.595-0.632-4.891-1.896c-1.295-1.265-1.943-2.863-1.943-4.798
		c0-1.934,0.661-3.546,1.98-4.835c1.321-1.289,2.987-1.935,5.002-1.935s3.698,0.744,5.049,2.231l-1.396,1.524
		c-0.619-0.595-1.206-1.01-1.756-1.245c-0.552-0.236-1.2-0.354-1.943-0.354c-1.314,0-2.418,0.425-3.311,1.274
		c-0.892,0.851-1.339,1.934-1.339,3.256c0,1.317,0.444,2.422,1.33,3.31C103.41,14.552,104.46,14.994,105.676,14.994z"/>
	<path fill="#C5C6C8" d="M119.362,14.994c0.756,0,1.406-0.128,1.952-0.381c0.545-0.253,1.116-0.661,1.711-1.219l1.413,1.451
		c-1.376,1.523-3.047,2.287-5.012,2.287s-3.595-0.632-4.89-1.896c-1.296-1.265-1.943-2.863-1.943-4.798
		c0-1.934,0.66-3.546,1.98-4.835c1.321-1.289,2.987-1.935,5.003-1.935c2.015,0,3.698,0.744,5.049,2.231l-1.395,1.524
		c-0.62-0.595-1.207-1.01-1.757-1.245c-0.552-0.236-1.199-0.354-1.943-0.354c-1.314,0-2.418,0.425-3.311,1.274
		c-0.892,0.851-1.338,1.934-1.338,3.256c0,1.317,0.443,2.422,1.33,3.31C117.097,14.552,118.147,14.994,119.362,14.994z"/>
	<path fill="#C5C6C8" d="M127.116,3.984h2.194v13.001h-2.194V3.984z"/>
	<path fill="#C5C6C8" d="M143.796,15.19c-1.314,1.281-2.938,1.924-4.873,1.924c-1.934,0-3.558-0.643-4.872-1.924
		c-1.313-1.283-1.971-2.884-1.971-4.8c0-1.915,0.657-3.514,1.971-4.797c1.314-1.282,2.938-1.925,4.872-1.925
		c1.934,0,3.559,0.643,4.873,1.925c1.314,1.283,1.971,2.882,1.971,4.797C145.768,12.307,145.11,13.907,143.796,15.19z
		 M142.188,7.054c-0.886-0.917-1.975-1.375-3.264-1.375s-2.377,0.458-3.263,1.375c-0.887,0.917-1.329,2.03-1.329,3.337
		c0,1.31,0.442,2.421,1.329,3.339c0.886,0.917,1.974,1.376,3.263,1.376s2.378-0.459,3.264-1.376
		c0.886-0.918,1.329-2.029,1.329-3.339C143.517,9.084,143.074,7.971,142.188,7.054z"/>
	<path fill="#C5C6C8" d="M158.282,3.984h2.195v13.001h-2.381L150.732,7.5v9.485h-2.194V3.984h2.194l7.55,9.708V3.984z"/>
	<path fill="#C5C6C8" d="M173.215,3.984V6.05h-6.937v3.439h6.23v1.952h-6.23v3.479h7.16v2.065h-9.354V3.984H173.215z"/>
	<path fill="#C5C6C8" d="M180.179,5.697c-0.638,0-1.162,0.129-1.572,0.39c-0.408,0.261-0.613,0.653-0.613,1.182
		c0,0.526,0.205,0.929,0.613,1.207c0.41,0.281,1.281,0.58,2.613,0.902c1.333,0.323,2.336,0.775,3.013,1.356
		c0.675,0.584,1.013,1.443,1.013,2.578c0,1.133-0.428,2.054-1.283,2.761c-0.855,0.706-1.978,1.06-3.366,1.06
		c-2.033,0-3.837-0.699-5.412-2.1l1.376-1.657c1.314,1.141,2.677,1.71,4.09,1.71c0.707,0,1.268-0.149,1.683-0.455
		c0.415-0.303,0.623-0.705,0.623-1.207c0-0.504-0.195-0.893-0.585-1.172c-0.391-0.279-1.063-0.533-2.018-0.763
		c-0.955-0.229-1.68-0.438-2.176-0.634c-0.495-0.19-0.936-0.441-1.319-0.752c-0.77-0.582-1.153-1.474-1.153-2.679
		c0-1.2,0.437-2.128,1.311-2.779c0.873-0.651,1.955-0.977,3.245-0.977c0.83,0,1.655,0.138,2.473,0.41
		c0.819,0.272,1.525,0.657,2.12,1.153l-1.172,1.654c-0.384-0.348-0.905-0.633-1.561-0.854
		C181.465,5.809,180.817,5.697,180.179,5.697z"/>
</g>
</svg>
